<?xml version="1.0" encoding="utf-8"?>
<!-- Generator: Adobe Illustrator 27.7.0, SVG Export Plug-In . SVG Version: 6.00 Build 0)  -->
<svg version="1.1" id="Layer_1" xmlns="http://www.w3.org/2000/svg" xmlns:xlink="http://www.w3.org/1999/xlink" x="0px" y="0px"
	 viewBox="0 0 1000 1000" style="enable-background:new 0 0 1000 1000;" xml:space="preserve">
<style type="text/css">
	.st0{opacity:0.5;}
	.st1{fill:#FF4EF3;}
	.st2{opacity:0.2;}
	.st3{opacity:0.1;}
	.st4{opacity:8.000000e-02;}
	.st5{opacity:6.000000e-02;}
	.st6{opacity:4.000000e-02;}
	.st7{opacity:2.000000e-02;}
</style>
<g id="Layer_1_copy" class="st0">
	<g>
		<path class="st1" d="M500.4,363.3c-75.7,0-137.1,61.4-137.1,137.1s61.4,137.1,137.1,137.1s137.1-61.4,137.1-137.1
			C637.5,424.7,576.2,363.3,500.4,363.3z M587.1,587.1c-23.2,23.2-53.9,35.9-86.7,35.9s-63.5-12.8-86.7-35.9s-35.9-53.9-35.9-86.7
			s12.8-63.5,35.9-86.7s53.9-35.9,86.7-35.9s63.5,12.8,86.7,35.9c23.2,23.1,35.9,53.9,35.9,86.7C623,533.2,610.2,564,587.1,587.1z
			 M500.4,397.6c-56.8,0-102.9,46-102.9,102.9s46,102.9,102.9,102.9s102.9-46,102.9-102.9S557.2,397.6,500.4,397.6z M500.4,587.9
			c-48.2,0-87.4-39.2-87.4-87.4s39.2-87.4,87.4-87.4s87.4,39.2,87.4,87.4S548.6,587.9,500.4,587.9z M500.4,431.9
			c-37.9,0-68.6,30.7-68.6,68.6s30.7,68.6,68.6,68.6s68.6-30.7,68.6-68.6S538.3,431.9,500.4,431.9z M500.4,551.9
			c-28.4,0-51.4-23.1-51.4-51.4s23.1-51.4,51.4-51.4c28.4,0,51.4,23.1,51.4,51.4S528.8,551.9,500.4,551.9z"/>
	</g>
</g>
<g id="Layer_1_copy_3" class="st2">
	<g>
		<path class="st1" d="M500.4,329C405.7,329,329,405.8,329,500.5s76.8,171.4,171.4,171.4s171.4-76.8,171.4-171.4
			S595.1,329,500.4,329z M611.9,612c-29.8,29.8-69.4,46.2-111.5,46.2s-81.7-16.4-111.5-46.2c-29.8-29.8-46.2-69.4-46.2-111.5
			s16.4-81.7,46.2-111.5c29.8-29.8,69.4-46.2,111.5-46.2s81.7,16.4,111.5,46.2c29.8,29.8,46.2,69.4,46.2,111.5
			C658.1,542.6,641.7,582.2,611.9,612z M500.4,363.3c-75.7,0-137.1,61.4-137.1,137.1s61.4,137.1,137.1,137.1s137.1-61.4,137.1-137.1
			C637.5,424.7,576.2,363.3,500.4,363.3z M587.1,587.1c-23.2,23.2-53.9,35.9-86.7,35.9s-63.5-12.8-86.7-35.9s-35.9-53.9-35.9-86.7
			s12.8-63.5,35.9-86.7s53.9-35.9,86.7-35.9s63.5,12.8,86.7,35.9c23.2,23.1,35.9,53.9,35.9,86.7C623,533.2,610.2,564,587.1,587.1z
			 M500.4,397.6c-56.8,0-102.9,46-102.9,102.9s46,102.9,102.9,102.9s102.9-46,102.9-102.9S557.2,397.6,500.4,397.6z M500.4,587.9
			c-48.2,0-87.4-39.2-87.4-87.4s39.2-87.4,87.4-87.4s87.4,39.2,87.4,87.4S548.6,587.9,500.4,587.9z M500.4,431.9
			c-37.9,0-68.6,30.7-68.6,68.6s30.7,68.6,68.6,68.6s68.6-30.7,68.6-68.6S538.3,431.9,500.4,431.9z M500.4,551.9
			c-28.4,0-51.4-23.1-51.4-51.4s23.1-51.4,51.4-51.4c28.4,0,51.4,23.1,51.4,51.4S528.8,551.9,500.4,551.9z"/>
	</g>
</g>
<g id="Layer_1_copy_4" class="st2">
	<g>
		<path class="st1" d="M500.4,294.7c-113.6,0-205.7,92.1-205.7,205.7s92.1,205.7,205.7,205.7s205.7-92.1,205.7-205.7
			S614,294.7,500.4,294.7z M693.3,500.5c0,26-5.1,51.3-15.2,75.1c-9.7,23-23.6,43.6-41.3,61.3c-17.7,17.7-38.3,31.6-61.3,41.3
			c-23.8,10-49,15.2-75.1,15.2c-26,0-51.3-5.1-75.1-15.2c-23-9.7-43.6-23.6-61.3-41.3c-17.7-17.7-31.6-38.3-41.3-61.3
			c-10-23.8-15.1-49-15.1-75.1s5.1-51.3,15.1-75.1c9.7-23,23.6-43.6,41.3-61.3s38.3-31.6,61.3-41.3c23.8-10,49-15.1,75.1-15.1
			c26,0,51.3,5.1,75.1,15.1c23,9.7,43.6,23.6,61.3,41.3s31.6,38.3,41.3,61.3C688.2,449.2,693.3,474.4,693.3,500.5z M500.4,329
			C405.7,329,329,405.8,329,500.5s76.8,171.4,171.4,171.4s171.4-76.8,171.4-171.4S595.1,329,500.4,329z M611.9,612
			c-29.8,29.8-69.4,46.2-111.5,46.2s-81.7-16.4-111.5-46.2c-29.8-29.8-46.2-69.4-46.2-111.5s16.4-81.7,46.2-111.5
			c29.8-29.8,69.4-46.2,111.5-46.2s81.7,16.4,111.5,46.2c29.8,29.8,46.2,69.4,46.2,111.5C658.1,542.6,641.7,582.2,611.9,612z
			 M500.4,363.3c-75.7,0-137.1,61.4-137.1,137.1s61.4,137.1,137.1,137.1s137.1-61.4,137.1-137.1
			C637.5,424.7,576.2,363.3,500.4,363.3z M587.1,587.1c-23.2,23.2-53.9,35.9-86.7,35.9s-63.5-12.8-86.7-35.9s-35.9-53.9-35.9-86.7
			s12.8-63.5,35.9-86.7s53.9-35.9,86.7-35.9s63.5,12.8,86.7,35.9c23.2,23.1,35.9,53.9,35.9,86.7C623,533.2,610.2,564,587.1,587.1z
			 M500.4,397.6c-56.8,0-102.9,46-102.9,102.9s46,102.9,102.9,102.9s102.9-46,102.9-102.9S557.2,397.6,500.4,397.6z M500.4,587.9
			c-48.2,0-87.4-39.2-87.4-87.4s39.2-87.4,87.4-87.4s87.4,39.2,87.4,87.4S548.6,587.9,500.4,587.9z M500.4,431.9
			c-37.9,0-68.6,30.7-68.6,68.6s30.7,68.6,68.6,68.6s68.6-30.7,68.6-68.6S538.3,431.9,500.4,431.9z M500.4,551.9
			c-28.4,0-51.4-23.1-51.4-51.4s23.1-51.4,51.4-51.4c28.4,0,51.4,23.1,51.4,51.4S528.8,551.9,500.4,551.9z"/>
	</g>
</g>
<g id="Layer_1_copy_5" class="st2">
	<g>
		<path class="st1" d="M500.4,260.5c-132.6,0-240,107.4-240,240s107.4,240,240,240s240-107.5,240-240S633,260.5,500.4,260.5z
			 M728.4,500.5c0,30.8-6,60.6-17.9,88.7c-11.5,27.2-27.9,51.5-48.9,72.5c-20.9,20.9-45.3,37.4-72.5,48.9
			c-28.1,11.9-58,17.9-88.7,17.9c-30.8,0-60.6-6-88.7-17.9c-27.1-11.5-51.5-27.9-72.5-48.9c-20.9-20.9-37.4-45.3-48.9-72.5
			c-11.9-28.1-17.9-58-17.9-88.7s6-60.6,17.9-88.7c11.5-27.1,27.9-51.5,48.9-72.5c20.9-20.9,45.3-37.4,72.5-48.9
			c28.1-11.9,58-17.9,88.7-17.9c30.8,0,60.6,6,88.7,17.9c27.2,11.5,51.5,27.9,72.5,48.9s37.4,45.3,48.9,72.5
			C722.4,439.8,728.4,469.7,728.4,500.5z M500.4,294.7c-113.6,0-205.7,92.1-205.7,205.7s92.1,205.7,205.7,205.7
			s205.7-92.1,205.7-205.7S614,294.7,500.4,294.7z M693.3,500.5c0,26-5.1,51.3-15.2,75.1c-9.7,23-23.6,43.6-41.3,61.3
			c-17.7,17.7-38.3,31.6-61.3,41.3c-23.8,10-49,15.2-75.1,15.2c-26,0-51.3-5.1-75.1-15.2c-23-9.7-43.6-23.6-61.3-41.3
			c-17.7-17.7-31.6-38.3-41.3-61.3c-10-23.8-15.1-49-15.1-75.1s5.1-51.3,15.1-75.1c9.7-23,23.6-43.6,41.3-61.3s38.3-31.6,61.3-41.3
			c23.8-10,49-15.1,75.1-15.1c26,0,51.3,5.1,75.1,15.1c23,9.7,43.6,23.6,61.3,41.3s31.6,38.3,41.3,61.3
			C688.2,449.2,693.3,474.4,693.3,500.5z M500.4,329C405.7,329,329,405.8,329,500.5s76.8,171.4,171.4,171.4s171.4-76.8,171.4-171.4
			S595.1,329,500.4,329z M611.9,612c-29.8,29.8-69.4,46.2-111.5,46.2s-81.7-16.4-111.5-46.2c-29.8-29.8-46.2-69.4-46.2-111.5
			s16.4-81.7,46.2-111.5c29.8-29.8,69.4-46.2,111.5-46.2s81.7,16.4,111.5,46.2c29.8,29.8,46.2,69.4,46.2,111.5
			C658.1,542.6,641.7,582.2,611.9,612z M500.4,363.3c-75.7,0-137.1,61.4-137.1,137.1s61.4,137.1,137.1,137.1s137.1-61.4,137.1-137.1
			C637.5,424.7,576.2,363.3,500.4,363.3z M587.1,587.1c-23.2,23.2-53.9,35.9-86.7,35.9s-63.5-12.8-86.7-35.9s-35.9-53.9-35.9-86.7
			s12.8-63.5,35.9-86.7s53.9-35.9,86.7-35.9s63.5,12.8,86.7,35.9c23.2,23.1,35.9,53.9,35.9,86.7C623,533.2,610.2,564,587.1,587.1z
			 M500.4,397.6c-56.8,0-102.9,46-102.9,102.9s46,102.9,102.9,102.9s102.9-46,102.9-102.9S557.2,397.6,500.4,397.6z M500.4,587.9
			c-48.2,0-87.4-39.2-87.4-87.4s39.2-87.4,87.4-87.4s87.4,39.2,87.4,87.4S548.6,587.9,500.4,587.9z M500.4,431.9
			c-37.9,0-68.6,30.7-68.6,68.6s30.7,68.6,68.6,68.6s68.6-30.7,68.6-68.6S538.3,431.9,500.4,431.9z M500.4,551.9
			c-28.4,0-51.4-23.1-51.4-51.4s23.1-51.4,51.4-51.4c28.4,0,51.4,23.1,51.4,51.4S528.8,551.9,500.4,551.9z"/>
	</g>
</g>
<g id="Layer_1_copy_6" class="st3">
	<g>
		<path class="st1" d="M500.4,226.2c-151.5,0-274.3,122.8-274.3,274.3c0,151.5,122.8,274.3,274.3,274.3S774.7,652,774.7,500.5
			C774.7,349,651.9,226.2,500.4,226.2z M763.5,500.5c0,35.5-7,70-20.7,102.4c-13.2,31.3-32.2,59.5-56.4,83.7
			c-24.2,24.2-52.3,43.2-83.7,56.4c-32.4,13.7-66.9,20.7-102.4,20.7s-70-7-102.4-20.7c-31.3-13.2-59.5-32.2-83.6-56.4
			c-24.2-24.2-43.1-52.3-56.4-83.7c-13.7-32.4-20.7-66.9-20.7-102.4s7-70,20.7-102.4c13.2-31.3,32.2-59.5,56.4-83.6
			c24.2-24.2,52.3-43.1,83.6-56.4c32.4-13.7,66.9-20.7,102.4-20.7s70,7,102.4,20.7c31.3,13.2,59.5,32.2,83.7,56.4
			c24.2,24.2,43.2,52.3,56.4,83.6C756.6,430.5,763.5,464.9,763.5,500.5z M500.4,260.5c-132.6,0-240,107.4-240,240s107.4,240,240,240
			s240-107.5,240-240S633,260.5,500.4,260.5z M728.4,500.5c0,30.8-6,60.6-17.9,88.7c-11.5,27.2-27.9,51.5-48.9,72.5
			c-20.9,20.9-45.3,37.4-72.5,48.9c-28.1,11.9-58,17.9-88.7,17.9c-30.8,0-60.6-6-88.7-17.9c-27.1-11.5-51.5-27.9-72.5-48.9
			c-20.9-20.9-37.4-45.3-48.9-72.5c-11.9-28.1-17.9-58-17.9-88.7s6-60.6,17.9-88.7c11.5-27.1,27.9-51.5,48.9-72.5
			c20.9-20.9,45.3-37.4,72.5-48.9c28.1-11.9,58-17.9,88.7-17.9c30.8,0,60.6,6,88.7,17.9c27.2,11.5,51.5,27.9,72.5,48.9
			s37.4,45.3,48.9,72.5C722.4,439.8,728.4,469.7,728.4,500.5z M500.4,294.7c-113.6,0-205.7,92.1-205.7,205.7s92.1,205.7,205.7,205.7
			s205.7-92.1,205.7-205.7S614,294.7,500.4,294.7z M693.3,500.5c0,26-5.1,51.3-15.2,75.1c-9.7,23-23.6,43.6-41.3,61.3
			c-17.7,17.7-38.3,31.6-61.3,41.3c-23.8,10-49,15.2-75.1,15.2c-26,0-51.3-5.1-75.1-15.2c-23-9.7-43.6-23.6-61.3-41.3
			c-17.7-17.7-31.6-38.3-41.3-61.3c-10-23.8-15.1-49-15.1-75.1s5.1-51.3,15.1-75.1c9.7-23,23.6-43.6,41.3-61.3s38.3-31.6,61.3-41.3
			c23.8-10,49-15.1,75.1-15.1c26,0,51.3,5.1,75.1,15.1c23,9.7,43.6,23.6,61.3,41.3s31.6,38.3,41.3,61.3
			C688.2,449.2,693.3,474.4,693.3,500.5z M500.4,329C405.7,329,329,405.8,329,500.5s76.8,171.4,171.4,171.4s171.4-76.8,171.4-171.4
			S595.1,329,500.4,329z M611.9,612c-29.8,29.8-69.4,46.2-111.5,46.2s-81.7-16.4-111.5-46.2c-29.8-29.8-46.2-69.4-46.2-111.5
			s16.4-81.7,46.2-111.5c29.8-29.8,69.4-46.2,111.5-46.2s81.7,16.4,111.5,46.2c29.8,29.8,46.2,69.4,46.2,111.5
			C658.1,542.6,641.7,582.2,611.9,612z M500.4,363.3c-75.7,0-137.1,61.4-137.1,137.1s61.4,137.1,137.1,137.1s137.1-61.4,137.1-137.1
			C637.5,424.7,576.2,363.3,500.4,363.3z M587.1,587.1c-23.2,23.2-53.9,35.9-86.7,35.9s-63.5-12.8-86.7-35.9s-35.9-53.9-35.9-86.7
			s12.8-63.5,35.9-86.7s53.9-35.9,86.7-35.9s63.5,12.8,86.7,35.9c23.2,23.1,35.9,53.9,35.9,86.7C623,533.2,610.2,564,587.1,587.1z
			 M500.4,397.6c-56.8,0-102.9,46-102.9,102.9s46,102.9,102.9,102.9s102.9-46,102.9-102.9S557.2,397.6,500.4,397.6z M500.4,587.9
			c-48.2,0-87.4-39.2-87.4-87.4s39.2-87.4,87.4-87.4s87.4,39.2,87.4,87.4S548.6,587.9,500.4,587.9z M500.4,431.9
			c-37.9,0-68.6,30.7-68.6,68.6s30.7,68.6,68.6,68.6s68.6-30.7,68.6-68.6S538.3,431.9,500.4,431.9z M500.4,551.9
			c-28.4,0-51.4-23.1-51.4-51.4s23.1-51.4,51.4-51.4c28.4,0,51.4,23.1,51.4,51.4S528.8,551.9,500.4,551.9z"/>
	</g>
</g>
<g id="Layer_1_copy_7" class="st3">
	<g>
		<path class="st1" d="M500.4,191.9C330,191.9,191.8,330,191.8,500.5S330,809,500.4,809S809,670.9,809,500.5
			S670.8,191.9,500.4,191.9z M711.3,711.4c-27.4,27.4-59.3,48.9-94.8,63.9c-36.8,15.5-75.8,23.4-116.1,23.4s-79.3-7.9-116.1-23.4
			c-35.5-15-67.4-36.5-94.8-63.9c-27.4-27.4-48.9-59.3-63.9-94.8c-15.6-36.8-23.4-75.8-23.4-116.1s7.9-79.3,23.4-116.1
			c15-35.5,36.5-67.4,63.9-94.8c27.4-27.4,59.3-48.9,94.8-63.9c36.8-15.6,75.8-23.4,116.1-23.4s79.3,7.9,116.1,23.4
			c35.5,15,67.4,36.5,94.8,63.9s48.9,59.3,63.9,94.8c15.5,36.8,23.4,75.8,23.4,116.1s-7.9,79.3-23.4,116.1
			C760.2,652.1,738.7,684,711.3,711.4z M500.4,226.2c-151.5,0-274.3,122.8-274.3,274.3c0,151.5,122.8,274.3,274.3,274.3
			S774.7,652,774.7,500.5C774.7,349,651.9,226.2,500.4,226.2z M763.5,500.5c0,35.5-7,70-20.7,102.4c-13.2,31.3-32.2,59.5-56.4,83.7
			c-24.2,24.2-52.3,43.2-83.7,56.4c-32.4,13.7-66.9,20.7-102.4,20.7s-70-7-102.4-20.7c-31.3-13.2-59.5-32.2-83.6-56.4
			c-24.2-24.2-43.1-52.3-56.4-83.7c-13.7-32.4-20.7-66.9-20.7-102.4s7-70,20.7-102.4c13.2-31.3,32.2-59.5,56.4-83.6
			c24.2-24.2,52.3-43.1,83.6-56.4c32.4-13.7,66.9-20.7,102.4-20.7s70,7,102.4,20.7c31.3,13.2,59.5,32.2,83.7,56.4
			c24.2,24.2,43.2,52.3,56.4,83.6C756.6,430.5,763.5,464.9,763.5,500.5z"/>
	</g>
</g>
<g id="Layer_1_copy_8" class="st4">
	<g>
		<path class="st1" d="M500.4,157.6c-189.4,0-342.9,153.5-342.9,342.9s153.5,342.9,342.9,342.9s342.9-153.5,342.9-342.9
			S689.8,157.6,500.4,157.6z M736.2,736.2c-30.6,30.6-66.3,54.7-106,71.5c-41.1,17.4-84.8,26.2-129.8,26.2s-88.7-8.8-129.8-26.2
			c-39.7-16.8-75.4-40.8-106-71.5c-30.6-30.6-54.7-66.3-71.5-106c-17.4-41.1-26.2-84.8-26.2-129.8c0-45,8.8-88.7,26.2-129.8
			c16.8-39.7,40.8-75.4,71.5-106c30.6-30.6,66.3-54.7,106-71.5c41.1-17.4,84.8-26.2,129.8-26.2s88.7,8.8,129.8,26.2
			c39.7,16.8,75.4,40.8,106,71.5c30.6,30.6,54.7,66.3,71.5,106c17.4,41.1,26.2,84.8,26.2,129.8c0,45-8.8,88.7-26.2,129.8
			C790.8,669.9,766.8,705.6,736.2,736.2z"/>
	</g>
</g>
<g id="Layer_1_copy_9" class="st5">
	<g>
		<path class="st1" d="M500.4,123.3c-208.3,0-377.1,168.9-377.1,377.1s168.9,377.1,377.1,377.1s377.1-168.8,377.1-377.1
			S708.7,123.3,500.4,123.3z M761,761.1c-33.8,33.8-73.3,60.4-117.2,79c-45.4,19.2-93.7,29-143.5,29s-98-9.7-143.5-29
			c-43.9-18.6-83.3-45.1-117.2-79s-60.4-73.3-79-117.2c-19.2-45.4-29-93.7-29-143.5s9.7-98,29-143.5c18.6-43.9,45.1-83.3,79-117.2
			s73.3-60.4,117.2-79c45.4-19.2,93.7-29,143.5-29s98,9.7,143.5,29c43.9,18.6,83.3,45.1,117.2,79c33.8,33.9,60.4,73.3,79,117.2
			c19.2,45.4,29,93.7,29,143.5s-9.7,98-29,143.5C821.5,687.8,794.9,727.2,761,761.1z"/>
	</g>
</g>
<g id="Layer_1_copy_10" class="st6">
	<g>
		<path class="st1" d="M500.4,89C273.2,89,89,273.2,89,500.5s184.2,411.4,411.4,411.4s411.4-184.2,411.4-411.4S727.6,89,500.4,89z
			 M785.9,785.9c-37.1,37.1-80.2,66.2-128.3,86.5c-49.8,21-102.6,31.7-157.1,31.7S393,893.5,343.3,872.4
			c-48.1-20.3-91.2-49.4-128.3-86.5s-66.2-80.2-86.5-128.3c-21.1-49.8-31.7-102.6-31.7-157.1s10.7-107.4,31.7-157.1
			c20.3-48.1,49.4-91.2,86.5-128.3s80.2-66.2,128.3-86.5c49.8-21.1,102.6-31.7,157.1-31.7s107.4,10.7,157.1,31.7
			c48.1,20.3,91.2,49.4,128.3,86.5s66.2,80.2,86.5,128.3c21,49.8,31.7,102.6,31.7,157.1s-10.7,107.4-31.7,157.1
			C852.1,705.7,823,748.8,785.9,785.9z"/>
	</g>
</g>
<g id="Layer_1_copy_11" class="st7">
	<g>
		<path class="st1" d="M500.4,54.7c-246.2,0-445.7,199.6-445.7,445.7s199.6,445.7,445.7,445.7s445.7-199.5,445.7-445.7
			S746.6,54.7,500.4,54.7z M810.7,810.8c-40.3,40.3-87.2,72-139.5,94c-54.1,22.9-111.6,34.5-170.8,34.5s-116.7-11.6-170.8-34.5
			c-52.3-22.1-99.2-53.8-139.5-94c-40.3-40.3-71.9-87.2-94.1-139.5c-22.9-54.1-34.5-111.6-34.5-170.8S73.2,383.7,96,329.6
			c22.1-52.3,53.8-99.2,94.1-139.5c40.3-40.3,87.2-71.9,139.5-94.1c54.1-22.9,111.6-34.5,170.8-34.5s116.7,11.6,170.8,34.5
			c52.3,22.1,99.2,53.8,139.5,94.1c40.3,40.3,72,87.2,94,139.5c22.9,54.1,34.5,111.6,34.5,170.8s-11.6,116.7-34.5,170.8
			C882.7,723.5,851,770.5,810.7,810.8z"/>
	</g>
</g>
<g id="Layer_1_copy_12" class="st7">
	<g>
		<path class="st1" d="M500.4,20.5c-265.1,0-480,214.9-480,480s214.9,480,480,480s480-214.9,480-480S765.5,20.5,500.4,20.5z
			 M893.5,765.5c-17,25.1-36.4,48.7-57.9,70.2c-21.5,21.5-45,40.9-70.2,57.9c-25.3,17.1-52.4,31.8-80.5,43.7
			c-58.4,24.7-120.5,37.2-184.5,37.2s-126.1-12.5-184.5-37.2c-28.1-11.9-55.2-26.6-80.5-43.7c-25.1-17-48.7-36.4-70.1-57.9
			s-40.9-45-57.9-70.2C90.3,740.1,75.6,713,63.7,685C39,626.5,26.4,564.4,26.4,500.5S39,374.4,63.7,316
			c11.9-28.1,26.6-55.2,43.7-80.5c17-25.1,36.4-48.7,57.9-70.1s45.1-40.9,70.1-57.9c25.3-17.1,52.4-31.8,80.5-43.7
			C374.3,39,436.4,26.5,500.4,26.5S626.5,39,684.9,63.7c28.1,11.9,55.2,26.6,80.5,43.7c25.1,17,48.7,36.4,70.2,57.9
			s40.9,45.1,57.9,70.1c17.1,25.3,31.8,52.4,43.7,80.5c24.7,58.4,37.2,120.5,37.2,184.5S961.9,626.5,937.2,685
			C925.3,713,910.6,740.1,893.5,765.5z"/>
	</g>
</g>
</svg>
